HIERARCHY
ROOT Root
{
  OFFSET 0.0 0.0 0.0
  CHANNELS 6 Xposition Yposition Zposition Zrotation Yrotation Xrotation
  JOINT Hips
  {
    OFFSET 0.0 100.0 0.0
    CHANNELS 6 Xposition Yposition Zposition Zrotation Yrotation Xrotation
    JOINT Spine1
    {
      OFFSET 5.003913 -0.037094 -0.013727
      CHANNELS 3 Zrotation Yrotation Xrotation
      JOINT Spine2
      {
        OFFSET 7.125363 -1e-06 0.0
        CHANNELS 3 Zrotation Yrotation Xrotation
        JOINT Chest
        {
          OFFSET 7.594027 1e-06 0.0
          CHANNELS 3 Zrotation Yrotation Xrotation
          JOINT Neck1
          {
            OFFSET 26.313086 -0.460272 -0.181672
            CHANNELS 3 Zrotation Yrotation Xrotation
            JOINT Neck2
            {
              OFFSET 8.045911 0.0 0.0
              CHANNELS 3 Zrotation Yrotation Xrotation
              JOINT Head
              {
                OFFSET 6.432774 0.0 0.0
                CHANNELS 3 Zrotation Yrotation Xrotation
                JOINT HeadEnd
                {
                  OFFSET 16.169773 0.06451 0.00362
                  CHANNELS 3 Zrotation Yrotation Xrotation
                }
                JOINT Jaw
                {
                  OFFSET 0.108741 3.12938 0.002639
                  CHANNELS 3 Zrotation Yrotation Xrotation
                }
                JOINT LeftEye
                {
                  OFFSET 4.45173 8.166359 3.206392
                  CHANNELS 3 Zrotation Yrotation Xrotation
                }
                JOINT RightEye
                {
                  OFFSET 4.436895 8.135758 -3.222429
                  CHANNELS 3 Zrotation Yrotation Xrotation
                }
              }
            }
          }
          JOINT LeftShoulder
          {
            OFFSET 23.218927 5.195579 1.621656
            CHANNELS 3 Zrotation Yrotation Xrotation
            JOINT LeftArm
            {
              OFFSET 15.902118 2e-06 -2e-06
              CHANNELS 3 Zrotation Yrotation Xrotation
              JOINT LeftForeArm
              {
                OFFSET 28.739307 0.0 -1e-06
                CHANNELS 3 Zrotation Yrotation Xrotation
                JOINT LeftHand
                {
                  OFFSET 27.093981 -4e-06 0.0
                  CHANNELS 3 Zrotation Yrotation Xrotation
                  JOINT LeftHandThumb1
                  {
                    OFFSET 2.276781 3.380274 0.83384
                    CHANNELS 3 Zrotation Yrotation Xrotation
                    JOINT LeftHandThumb2
                    {
                      OFFSET 4.705309 -1e-06 -1e-06
                      CHANNELS 3 Zrotation Yrotation Xrotation
                      JOINT LeftHandThumb3
                      {
                        OFFSET 2.798515 0.0 3e-06
                        CHANNELS 3 Zrotation Yrotation Xrotation
                        JOINT LeftHandThumbEnd
                        {
                          OFFSET 3.180793 4e-06 -4e-06
                          CHANNELS 3 Zrotation Yrotation Xrotation
                        }
                      }
                    }
                  }
                  JOINT LeftHandIndex1
                  {
                    OFFSET 3.247786 2.352677 0.137192
                    CHANNELS 3 Zrotation Yrotation Xrotation
                    JOINT LeftHandIndex2
                    {
                      OFFSET 6.367095 1e-06 0.0
                      CHANNELS 3 Zrotation Yrotation Xrotation
                      JOINT LeftHandIndex3
                      {
                        OFFSET 3.662364 0.0 0.0
                        CHANNELS 3 Zrotation Yrotation Xrotation
                        JOINT LeftHandIndex4
                        {
                          OFFSET 2.329242 4e-06 -4e-06
                          CHANNELS 3 Zrotation Yrotation Xrotation
                          JOINT LeftHandIndexEnd
                          {
                            OFFSET 2.767823 1e-06 0.0
                            CHANNELS 3 Zrotation Yrotation Xrotation
                          }
                        }
                      }
                    }
                  }
                  JOINT LeftHandMiddle1
                  {
                    OFFSET 3.163612 0.945023 -0.406112
                    CHANNELS 3 Zrotation Yrotation Xrotation
                    JOINT LeftHandMiddle2
                    {
                      OFFSET 6.276789 3e-06 0.0
                      CHANNELS 3 Zrotation Yrotation Xrotation
                      JOINT LeftHandMiddle3
                      {
                        OFFSET 4.35652 -1e-06 4e-06
                        CHANNELS 3 Zrotation Yrotation Xrotation
                        JOINT LeftHandMiddle4
                        {
                          OFFSET 2.996877 0.0 8e-06
                          CHANNELS 3 Zrotation Yrotation Xrotation
                          JOINT LeftHandMiddleEnd
                          {
                            OFFSET 2.323256 3e-06 -4e-06
                            CHANNELS 3 Zrotation Yrotation Xrotation
                          }
                        }
                      }
                    }
                  }
                  JOINT LeftHandRing1
                  {
                    OFFSET 2.882606 -0.309162 0.107445
                    CHANNELS 3 Zrotation Yrotation Xrotation
                    JOINT LeftHandRing2
                    {
                      OFFSET 6.033198 0.0 4e-06
                      CHANNELS 3 Zrotation Yrotation Xrotation
                      JOINT LeftHandRing3
                      {
                        OFFSET 4.350578 3e-06 0.0
                        CHANNELS 3 Zrotation Yrotation Xrotation
                        JOINT LeftHandRing4
                        {
                          OFFSET 2.651321 2e-06 -7e-06
                          CHANNELS 3 Zrotation Yrotation Xrotation
                          JOINT LeftHandRingEnd
                          {
                            OFFSET 1.937663 1e-06 -4e-06
                            CHANNELS 3 Zrotation Yrotation Xrotation
                          }
                        }
                      }
                    }
                  }
                  JOINT LeftHandPinky1
                  {
                    OFFSET 2.865315 -1.525436 0.575687
                    CHANNELS 3 Zrotation Yrotation Xrotation
                    JOINT LeftHandPinky2
                    {
                      OFFSET 5.54936 1e-06 -8e-06
                      CHANNELS 3 Zrotation Yrotation Xrotation
                      JOINT LeftHandPinky3
                      {
                        OFFSET 3.070974 0.0 -4e-06
                        CHANNELS 3 Zrotation Yrotation Xrotation
                        JOINT LeftHandPinky4
                        {
                          OFFSET 1.549672 1e-06 0.0
                          CHANNELS 3 Zrotation Yrotation Xrotation
                          JOINT LeftHandPinkyEnd
                          {
                            OFFSET 1.952123 0.0 0.0
                            CHANNELS 3 Zrotation Yrotation Xrotation
                          }
                        }
                      }
                    }
                  }
                }
              }
            }
          }
          JOINT RightShoulder
          {
            OFFSET 23.161716 5.296122 -1.380114
            CHANNELS 3 Zrotation Yrotation Xrotation
            JOINT RightArm
            {
              OFFSET -16.027195 -2e-06 1.1e-05
              CHANNELS 3 Zrotation Yrotation Xrotation
              JOINT RightForeArm
              {
                OFFSET -28.736639 4e-06 2e-06
                CHANNELS 3 Zrotation Yrotation Xrotation
                JOINT RightHand
                {
                  OFFSET -27.133619 6e-06 0.0
                  CHANNELS 3 Zrotation Yrotation Xrotation
                  JOINT RightHandThumb1
                  {
                    OFFSET -2.274328 -3.351035 -0.83067
                    CHANNELS 3 Zrotation Yrotation Xrotation
                    JOINT RightHandThumb2
                    {
                      OFFSET -4.703594 -3e-06 2e-06
                      CHANNELS 3 Zrotation Yrotation Xrotation
                      JOINT RightHandThumb3
                      {
                        OFFSET -2.794935 -4e-06 -3e-06
                        CHANNELS 3 Zrotation Yrotation Xrotation
                        JOINT RightHandThumbEnd
                        {
                          OFFSET -3.183852 4e-06 1e-06
                          CHANNELS 3 Zrotation Yrotation Xrotation
                        }
                      }
                    }
                  }
                  JOINT RightHandIndex1
                  {
                    OFFSET -3.253496 -2.33755 -0.127667
                    CHANNELS 3 Zrotation Yrotation Xrotation
                    JOINT RightHandIndex2
                    {
                      OFFSET -6.344434 0.0 0.0
                      CHANNELS 3 Zrotation Yrotation Xrotation
                      JOINT RightHandIndex3
                      {
                        OFFSET -3.654871 0.0 -8e-06
                        CHANNELS 3 Zrotation Yrotation Xrotation
                        JOINT RightHandIndex4
                        {
                          OFFSET -2.327586 -1e-06 0.0
                          CHANNELS 3 Zrotation Yrotation Xrotation
                          JOINT RightHandIndexEnd
                          {
                            OFFSET -2.770001 3e-06 8e-06
                            CHANNELS 3 Zrotation Yrotation Xrotation
                          }
                        }
                      }
                    }
                  }
                  JOINT RightHandMiddle1
                  {
                    OFFSET -3.168223 -0.944764 0.411762
                    CHANNELS 3 Zrotation Yrotation Xrotation
                    JOINT RightHandMiddle2
                    {
                      OFFSET -6.266691 -1e-06 -4e-06
                      CHANNELS 3 Zrotation Yrotation Xrotation
                      JOINT RightHandMiddle3
                      {
                        OFFSET -4.348901 0.0 0.0
                        CHANNELS 3 Zrotation Yrotation Xrotation
                        JOINT RightHandMiddle4
                        {
                          OFFSET -3.00024 2e-06 -4e-06
                          CHANNELS 3 Zrotation Yrotation Xrotation
                          JOINT RightHandMiddleEnd
                          {
                            OFFSET -2.321477 -4e-06 -4e-06
                            CHANNELS 3 Zrotation Yrotation Xrotation
                          }
                        }
                      }
                    }
                  }
                  JOINT RightHandRing1
                  {
                    OFFSET -2.885654 0.293261 -0.119232
                    CHANNELS 3 Zrotation Yrotation Xrotation
                    JOINT RightHandRing2
                    {
                      OFFSET -6.032835 -1e-06 -4e-06
                      CHANNELS 3 Zrotation Yrotation Xrotation
                      JOINT RightHandRing3
                      {
                        OFFSET -4.33881 0.0 -4e-06
                        CHANNELS 3 Zrotation Yrotation Xrotation
                        JOINT RightHandRing4
                        {
                          OFFSET -2.654903 -4e-06 -4e-06
                          CHANNELS 3 Zrotation Yrotation Xrotation
                          JOINT RightHandRingEnd
                          {
                            OFFSET -1.935122 0.0 4e-06
                            CHANNELS 3 Zrotation Yrotation Xrotation
                          }
                        }
                      }
                    }
                  }
                  JOINT RightHandPinky1
                  {
                    OFFSET -2.866241 1.503904 -0.60527
                    CHANNELS 3 Zrotation Yrotation Xrotation
                    JOINT RightHandPinky2
                    {
                      OFFSET -5.553177 -2e-06 0.0
                      CHANNELS 3 Zrotation Yrotation Xrotation
                      JOINT RightHandPinky3
                      {
                        OFFSET -3.062664 -1e-06 -4e-06
                        CHANNELS 3 Zrotation Yrotation Xrotation
                        JOINT RightHandPinky4
                        {
                          OFFSET -1.546529 2e-06 4e-06
                          CHANNELS 3 Zrotation Yrotation Xrotation
                          JOINT RightHandPinkyEnd
                          {
                            OFFSET -1.952341 0.0 -4e-06
                            CHANNELS 3 Zrotation Yrotation Xrotation
                          }
                        }
                      }
                    }
                  }
                }
              }
            }
          }
        }
      }
    }
    JOINT LeftLeg
    {
      OFFSET -8.443107 2.567604 10.043214
      CHANNELS 3 Zrotation Yrotation Xrotation
      JOINT LeftShin
      {
        OFFSET 43.229198 1e-06 -1e-06
        CHANNELS 3 Zrotation Yrotation Xrotation
        JOINT LeftFoot
        {
          OFFSET 42.298611 1e-06 1e-06
          CHANNELS 3 Zrotation Yrotation Xrotation
          JOINT LeftToeBase
          {
            OFFSET 14.165858 1e-06 0.0
            CHANNELS 3 Zrotation Yrotation Xrotation
            JOINT LeftToeEnd
            {
              OFFSET 6.7141 -0.234461 0.0
              CHANNELS 3 Zrotation Yrotation Xrotation
            }
          }
        }
      }
    }
    JOINT RightLeg
    {
      OFFSET -8.303923 2.592729 -10.047278
      CHANNELS 3 Zrotation Yrotation Xrotation
      JOINT RightShin
      {
        OFFSET -43.369682 0.0 1e-06
        CHANNELS 3 Zrotation Yrotation Xrotation
        JOINT RightFoot
        {
          OFFSET -42.260784 4e-06 2e-06
          CHANNELS 3 Zrotation Yrotation Xrotation
          JOINT RightToeBase
          {
            OFFSET -14.222245 -2e-06 -1e-06
            CHANNELS 3 Zrotation Yrotation Xrotation
            JOINT RightToeEnd
            {
              OFFSET -6.660062 0.232574 -2e-06
              CHANNELS 3 Zrotation Yrotation Xrotation
            }
          }
        }
      }
    }
  }
}
MOTION
Frames: 4
Frame Time: 0.03333333333333333
0.0 0.0 0.0 0.0 -0.0 0.0 2.301461 50.344257 -0.306616 93.909363 -55.007034 90.825294 12.663866 -1.695458 -0.483166 -4.035766 -1.496146 -0.494576 24.73963 -1.052185 -2.56525 15.96306 3.548526 3.01683 -2.601533 -1.053369 -1.730188 -23.721092 2.74263 -2.556831 6e-06 -0.0 -0.0 -0.186876 -0.193593 0.020965 -0.202079 -0.047941 0.05851 -0.243949 -0.337551 -0.006388 -32.582203 -63.329903 37.032303 96.389885 -6.264247 -49.821598 15.569111 -0.370491 0.033722 1.200873 69.80571 3.400291 17.636618 -26.322729 52.411205 -19.466658 -14.395598 29.410393 -0.0 -8.774821 -1e-06 15.391004 -18.009983 7.226562 -0.609775 -1.795655 -3.889328 -4.807086 -11.046805 -2.937852 3e-06 -20.976015 2e-06 -5.019969 -25.033554 -4.031881 7e-06 0.0 -1e-06 -10.634533 -5.686968 -3.565588 10.573272 -17.922947 -3.113903 2e-06 -13.821203 3e-06 -0.501773 -31.181494 -4.027019 -11.389444 -58.315773 7.619549 -13.982711 -7.150198 -2.875042 13.772727 -8.401489 -3.218242 0.347732 -34.211536 0.771654 -0.963028 -17.733362 2.621019 -0.0 -0.0 2e-06 -17.346413 -20.095213 -4.201784 21.757557 -1.638376 3.866427 1e-06 -6.338824 0.0 -1.697589 -22.591738 -6.194006 -0.0 -4e-06 -3e-06 160.259048 -73.297066 25.905508 82.657959 -2.832959 -53.051041 29.717733 0.063083 -0.26771 60.297779 58.282703 70.765877 22.182119 -20.375898 49.933327 -16.701815 -16.743528 28.476532 -3e-06 -12.690601 -1e-06 16.923882 -18.036715 2.538458 -0.105919 -1.513856 -4.275882 -5.039042 -5.612872 -2.953557 5e-06 -11.020525 -3e-06 -6.111297 -15.895338 -3.840471 -1e-06 1e-06 -1e-06 -10.283371 -5.680288 -4.34184 11.028296 -11.302405 -2.372633 -1.384268 -14.238583 -6.320122 -0.625437 -26.924185 -3.827601 -4.649218 -50.034637 -3.850264 -13.708526 -7.363476 -3.72094 18.141153 -14.05274 -3.242675 7e-06 -18.78727 -1e-06 -0.429712 -8.456045 2.555504 0.0 2e-06 0.0 -15.923538 -20.094482 -5.473587 30.419222 -7.190827 1.735926 2e-06 -8.162927 -1e-06 -1.861901 -22.861469 -6.167942 -0.0 -5e-06 -2e-06 118.271683 2.040237 -8.605124 112.987656 0.529066 0.56273 -66.549438 3.644903 6.139616 -35.445141 1.758873 0.97216 -1.0 -1e-06 0.0 -50.157413 -8.087811 5.500187 101.654167 -0.516789 0.053191 -59.833927 5.530328 3.364229 -30.367435 0.905108 1.443529 -1.000003 0.0 -0.0 
0.0 0.0 0.0 0.0 -0.0 0.0 1.983669 50.474503 0.502814 93.219116 -55.098732 91.219574 12.63463 -1.461139 -0.311385 -4.176539 -1.534362 -0.216328 24.837795 -1.325915 -2.312823 15.516177 3.192981 2.690469 -2.606686 -0.777755 -1.886496 -23.591173 2.864084 -2.826425 6e-06 -0.0 -0.0 -0.17877 -0.23914 0.029213 -0.154671 -0.105963 0.066048 -0.181349 -0.367762 -0.006347 -33.240971 -64.219704 38.258526 97.079964 -6.15034 -49.748726 14.902433 -0.215109 0.06926 6.599222 69.870644 8.398586 17.636629 -26.322729 52.411182 -19.466652 -14.395594 29.410378 -2e-06 -8.77482 -2e-06 15.691262 -18.167746 6.884068 -0.609777 -1.795653 -3.889326 -4.807087 -11.046809 -2.937852 5e-06 -20.976019 1e-06 -5.019968 -25.033556 -4.03188 6e-06 0.0 1e-06 -10.634533 -5.686969 -3.565586 10.573275 -17.922953 -3.1139 2e-06 -13.821206 3e-06 -0.501776 -31.181498 -4.027015 -11.298265 -58.486233 7.480237 -13.982712 -7.150197 -2.875042 13.77273 -8.401491 -3.218241 0.347732 -34.211544 0.771655 -0.963027 -17.733366 2.621016 0.0 -0.0 3e-06 -17.346416 -20.095217 -4.201781 21.757555 -1.638372 3.86643 1e-06 -6.338823 -1e-06 -1.697589 -22.59174 -6.194005 -0.0 -5e-06 -2e-06 161.950104 -73.103714 24.495247 79.704048 -0.509751 -56.05674 31.758307 -0.045846 -0.498123 59.691956 56.656487 68.754997 22.182114 -20.375895 49.933327 -16.701817 -16.74353 28.476534 -3e-06 -12.690601 -0.0 16.43498 -17.871279 2.700106 -0.105919 -1.513856 -4.275882 -5.039041 -5.612871 -2.953556 4e-06 -11.020524 -2e-06 -6.111298 -15.895334 -3.840471 1e-06 1e-06 1e-06 -10.28337 -5.680288 -4.341839 11.028295 -11.302405 -2.372633 -1.384269 -14.238581 -6.32012 -0.625437 -26.924187 -3.827602 -4.587811 -49.611332 -3.841954 -13.708524 -7.363476 -3.720939 18.141148 -14.052739 -3.242674 6e-06 -18.787266 -2e-06 -0.429711 -8.456044 2.555503 1e-06 1e-06 -1e-06 -15.923532 -20.094482 -5.473584 30.41921 -7.190825 1.735924 1e-06 -8.162926 0.0 -1.861903 -22.861467 -6.167942 0.0 -3e-06 -1e-06 116.643036 0.485356 -8.994251 115.157074 0.23735 0.526106 -66.549324 3.623505 6.095034 -32.282188 1.845926 1.025932 -0.999998 -0.0 0.0 -49.285259 -7.291341 4.847015 100.225655 -0.587917 0.022816 -58.539181 4.971195 3.350133 -29.247082 0.886356 1.473804 -1.000002 0.0 0.0 
0.0 0.0 0.0 0.0 -0.0 0.0 1.582635 50.539207 1.263738 92.782974 -54.857769 91.421059 12.679945 -1.374807 -0.132396 -4.150677 -1.49246 0.13844 25.059265 -1.599641 -2.090097 15.001865 2.797558 2.420783 -2.641924 -0.6414 -2.130742 -23.643866 2.882652 -3.130758 7e-06 -0.0 -0.0 -0.170587 -0.237137 0.031851 -0.150947 -0.113884 0.054985 -0.153904 -0.355352 0.001747 -33.515549 -65.132439 39.179932 97.358536 -5.869632 -49.48991 14.702745 -0.093726 0.105923 10.892174 69.758392 12.460425 17.636625 -26.322725 52.411182 -19.466656 -14.395597 29.410385 -2e-06 -8.774819 -2e-06 15.93435 -18.315443 6.693653 -0.609776 -1.795652 -3.889328 -4.807086 -11.046805 -2.93785 5e-06 -20.976011 -0.0 -5.019965 -25.033552 -4.031882 6e-06 1e-06 -3e-06 -10.63453 -5.686967 -3.565588 10.573271 -17.922947 -3.113901 4e-06 -13.821203 2e-06 -0.501773 -31.181494 -4.027018 -11.208076 -58.684959 7.51489 -13.982711 -7.150195 -2.875042 13.772726 -8.401491 -3.218242 0.347733 -34.21154 0.771657 -0.963028 -17.733364 2.621019 0.0 0.0 1e-06 -17.346413 -20.095209 -4.201782 21.757551 -1.638376 3.866426 0.0 -6.338823 -0.0 -1.697589 -22.591734 -6.194004 -1e-06 -5e-06 -2e-06 165.156586 -72.616142 21.303133 76.568115 2.198616 -58.301903 31.493023 -0.034227 -0.570976 57.636642 56.352642 65.402664 22.182114 -20.375898 49.933315 -16.701807 -16.743526 28.476528 -2e-06 -12.690598 -2e-06 16.195145 -17.747307 2.810679 -0.10592 -1.513855 -4.275881 -5.039041 -5.612869 -2.953555 4e-06 -11.02052 -0.0 -6.111299 -15.89533 -3.84047 -0.0 2e-06 0.0 -10.283369 -5.680286 -4.341837 11.02829 -11.302401 -2.372631 -1.384268 -14.238575 -6.320118 -0.625437 -26.924175 -3.827601 -4.497484 -49.436325 -3.814192 -13.708523 -7.363473 -3.720939 18.141148 -14.052737 -3.242672 5e-06 -18.787262 1e-06 -0.429712 -8.456043 2.555503 0.0 0.0 0.0 -15.923534 -20.094477 -5.473584 30.419205 -7.190823 1.735928 2e-06 -8.162926 -0.0 -1.861902 -22.861467 -6.167939 -0.0 -1e-06 -1e-06 114.49276 -1.219299 -9.196605 118.538399 0.034479 0.522454 -67.409813 3.301838 6.518437 -30.174994 1.865957 1.12192 -0.999999 -0.0 0.0 -48.10778 -6.571058 4.324034 98.899643 -0.608464 0.04437 -57.169044 4.560579 3.617169 -28.668049 0.888782 1.461341 -1.000001 -0.0 -0.0 
0.0 0.0 0.0 0.0 -0.0 0.0 1.157443 50.524826 1.919485 92.673569 -54.560257 91.447952 12.770812 -1.387687 0.002262 -4.045182 -1.401498 0.464897 25.244505 -1.938564 -1.936951 14.489044 2.416151 2.234776 -2.657297 -0.627509 -2.384271 -23.936869 2.915442 -3.45958 7e-06 -0.0 0.0 -0.162556 -0.211638 0.029241 -0.155418 -0.096233 0.038056 -0.137788 -0.324369 0.009649 -33.829178 -65.969322 40.013115 97.516617 -5.660482 -49.179588 14.796364 -0.13182 0.107933 14.799562 69.924408 16.723263 17.636625 -26.322733 52.411205 -19.466652 -14.395597 29.410393 -1e-06 -8.774821 -1e-06 16.041655 -18.392937 6.661443 -0.609775 -1.795652 -3.889327 -4.807087 -11.04681 -2.937852 1e-06 -20.976017 2e-06 -5.01997 -25.033556 -4.031883 6e-06 -0.0 -0.0 -10.634531 -5.686968 -3.565587 10.573271 -17.922947 -3.1139 2e-06 -13.821205 4e-06 -0.501778 -31.181498 -4.027016 -11.19988 -58.876301 7.673462 -13.982712 -7.150198 -2.875043 13.772727 -8.40149 -3.218241 0.347727 -34.211544 0.771661 -0.96303 -17.73337 2.621018 -0.0 -0.0 5e-06 -17.346418 -20.095217 -4.201782 21.757555 -1.638373 3.866428 0.0 -6.338822 0.0 -1.697592 -22.59174 -6.194007 -0.0 -4e-06 -2e-06 168.434097 -71.910095 17.784935 73.862984 4.758649 -59.796249 29.403452 0.082804 -0.582407 53.994637 56.540325 60.63937 22.182121 -20.375896 49.933319 -16.701815 -16.743528 28.47653 -2e-06 -12.690601 -3e-06 16.10701 -17.666151 2.87604 -0.105919 -1.513856 -4.275881 -5.039041 -5.612871 -2.953555 5e-06 -11.020525 -2e-06 -6.111298 -15.895332 -3.840469 1e-06 1e-06 0.0 -10.283372 -5.680287 -4.341838 11.028296 -11.302406 -2.372633 -1.384268 -14.238579 -6.320121 -0.625436 -26.924185 -3.8276 -4.3918 -49.381878 -3.761497 -13.708526 -7.363474 -3.72094 18.14115 -14.052739 -3.242674 7e-06 -18.78727 -0.0 -0.429711 -8.456043 2.555504 0.0 4e-06 -0.0 -15.923536 -20.094482 -5.473586 30.41921 -7.190829 1.73593 1e-06 -8.162927 0.0 -1.8619 -22.861469 -6.167942 -0.0 -1e-06 -1e-06 111.638573 -2.616691 -9.111002 122.648605 -0.034307 0.529855 -69.457603 3.205631 7.193084 -29.240982 1.841767 1.194083 -0.999998 0.0 0.0 -46.967926 -6.133043 3.929492 97.904198 -0.56571 0.062482 -56.450104 4.045317 3.758021 -28.726061 0.898495 1.443133 -1.000002 0.0 -0.0 
